# Blender 3.4.1
# www.blender.org
mtllib PersonToken.mtl
o Cube
v 1.030476 1.504081 0.000000
v 0.706325 0.407270 0.000000
v 0.000000 2.011086 0.000000
v 0.000000 0.011086 0.000000
v 1.012882 1.496370 -0.060839
v 0.693933 0.417158 -0.060839
v 0.000000 0.027925 -0.060839
v 0.000000 1.994718 -0.060839
v -1.030476 1.504081 0.000000
v -0.706325 0.407270 0.000000
v -1.012882 1.496370 -0.060839
v -0.693933 0.417158 -0.060839
v 1.012882 1.496370 0.060839
v 0.693933 0.417158 0.060839
v 0.000000 0.027925 0.060839
v 0.000000 1.994718 0.060839
v -1.012882 1.496370 0.060839
v -0.693933 0.417158 0.060839
vn 0.4291 0.8722 -0.2347
vn -0.0000 -0.0000 -1.0000
vn 0.4755 -0.8478 -0.2347
vn 0.9322 -0.2755 -0.2347
vn -0.4291 0.8722 -0.2347
vn -0.4755 -0.8478 -0.2347
vn -0.9322 -0.2755 -0.2347
vn 0.4291 0.8722 0.2347
vn -0.0000 -0.0000 1.0000
vn 0.4755 -0.8478 0.2347
vn 0.9322 -0.2755 0.2347
vn -0.4291 0.8722 0.2347
vn -0.4755 -0.8478 0.2347
vn -0.9322 -0.2755 0.2347
vt 0.625000 0.625000
vt 0.375000 0.625000
vt 0.750000 0.625000
vt 0.250000 0.625000
vt 0.622124 0.498217
vt 0.378257 0.497320
vt 0.376168 0.498660
vt 0.377105 0.375000
vt 0.251271 0.500000
vt 0.749213 0.500000
vt 0.622954 0.375000
vt 0.625000 0.625000
vt 0.375000 0.625000
vt 0.622124 0.498217
vt 0.378257 0.497320
vt 0.376168 0.498660
vt 0.622124 0.498217
vt 0.378257 0.497320
vt 0.376168 0.498660
vt 0.377105 0.375000
vt 0.251271 0.500000
vt 0.749213 0.500000
vt 0.622954 0.375000
vt 0.622124 0.498217
vt 0.378257 0.497320
vt 0.376168 0.498660
s 0
usemtl Material
f 5/5/1 8/10/1 3/3/1 1/1/1
f 7/8/2 8/11/2 5/5/2 6/6/2
f 7/9/3 6/7/3 2/2/3 4/4/3
f 6/7/4 5/5/4 1/1/4 2/2/4
f 11/14/5 9/12/5 3/3/5 8/10/5
f 7/8/2 12/15/2 11/14/2 8/11/2
f 7/9/6 4/4/6 10/13/6 12/16/6
f 12/16/7 10/13/7 9/12/7 11/14/7
f 13/17/8 1/1/8 3/3/8 16/22/8
f 15/20/9 14/18/9 13/17/9 16/23/9
f 15/21/10 4/4/10 2/2/10 14/19/10
f 14/19/11 2/2/11 1/1/11 13/17/11
f 17/24/12 16/22/12 3/3/12 9/12/12
f 15/20/9 16/23/9 17/24/9 18/25/9
f 15/21/13 18/26/13 10/13/13 4/4/13
f 18/26/14 17/24/14 9/12/14 10/13/14
o Sphere
v 0.179408 0.128600 -0.105377
v 0.331503 0.098426 -0.194711
v 0.462542 0.047415 -0.273746
v 0.468817 0.000000 -0.275362
v 0.253722 0.128600 0.000000
v 0.468817 0.098426 0.000000
v 0.658714 0.049420 0.000000
v 0.663007 0.000000 0.000000
v 0.000000 0.139196 0.000000
v 0.000000 0.128600 -0.149025
v 0.000000 0.098426 -0.275362
v 0.000000 0.043648 -0.386714
v 0.000000 0.000000 -0.389421
v 0.177967 0.000000 -0.104101
v 0.000000 0.000000 0.000000
v 0.000000 0.000000 -0.149507
v 0.254784 0.000000 0.000000
v 0.179408 0.128600 0.105377
v 0.331503 0.098426 0.194711
v 0.462542 0.047415 0.273746
v 0.468817 0.000000 0.275362
v 0.000000 0.128600 0.149025
v 0.000000 0.098426 0.275362
v 0.000000 0.043648 0.386714
v 0.000000 0.000000 0.389421
v 0.177967 0.000000 0.104101
v 0.000000 0.000000 0.149507
v -0.179408 0.128600 -0.105377
v -0.331503 0.098426 -0.194711
v -0.462542 0.047415 -0.273746
v -0.468817 0.000000 -0.275362
v -0.253722 0.128600 0.000000
v -0.468817 0.098426 0.000000
v -0.658714 0.049420 0.000000
v -0.663007 0.000000 0.000000
v -0.177967 0.000000 -0.104101
v -0.254784 0.000000 0.000000
v -0.179408 0.128600 0.105377
v -0.331503 0.098426 0.194711
v -0.462542 0.047415 0.273746
v -0.468817 0.000000 0.275362
v -0.177967 0.000000 0.104101
vn -0.0000 0.5255 -0.8508
vn -0.0000 0.9375 -0.3480
vn 0.1430 0.9547 -0.2609
vn 0.4632 0.5575 -0.6889
vn -0.0000 0.9864 -0.1642
vn -0.0000 1.0000 -0.0000
vn 0.0675 0.9896 -0.1274
vn -0.0000 0.0641 -0.9979
vn 0.5752 0.0866 -0.8134
vn 0.1093 0.9940 -0.0000
vn 0.2196 0.9756 -0.0000
vn 0.8203 0.5719 -0.0000
vn -0.0000 -1.0000 -0.0000
vn 0.9928 0.1201 -0.0000
vn -0.0000 0.5255 0.8508
vn 0.4632 0.5575 0.6889
vn 0.1430 0.9547 0.2609
vn -0.0000 0.9375 0.3480
vn -0.0000 0.9864 0.1642
vn 0.0675 0.9896 0.1274
vn -0.0000 0.0641 0.9979
vn 0.5752 0.0866 0.8134
vn -0.4632 0.5575 -0.6889
vn -0.1430 0.9547 -0.2609
vn -0.0675 0.9896 -0.1274
vn -0.5752 0.0866 -0.8134
vn -0.2196 0.9756 -0.0000
vn -0.1093 0.9940 -0.0000
vn -0.8203 0.5719 -0.0000
vn -0.9928 0.1201 -0.0000
vn -0.1430 0.9547 0.2609
vn -0.4632 0.5575 0.6889
vn -0.0675 0.9896 0.1274
vn -0.5752 0.0866 0.8134
vt 0.625000 0.875000
vt 0.625000 0.750000
vt 0.625000 0.625000
vt 0.000000 0.000000
vt 0.625000 0.500000
vt 0.500000 0.875000
vt 0.500000 0.750000
vt 0.500000 0.625000
vt 0.000000 0.000000
vt 0.500000 0.500000
vt 0.687500 1.000000
vt 0.562500 1.000000
vt 0.750000 0.875000
vt 0.750000 0.750000
vt 0.750000 0.625000
vt 0.750000 0.500000
vt 0.000000 0.000000
vt 0.000000 0.000000
vt 0.000000 0.000000
vt 0.000000 0.000000
vt 0.000000 0.000000
vt 0.625000 0.875000
vt 0.625000 0.750000
vt 0.625000 0.625000
vt 0.000000 0.000000
vt 0.625000 0.500000
vt 0.750000 0.875000
vt 0.750000 0.750000
vt 0.750000 0.625000
vt 0.750000 0.500000
vt 0.000000 0.000000
vt 0.000000 0.000000
vt 0.000000 0.000000
vt 0.625000 0.875000
vt 0.625000 0.750000
vt 0.625000 0.625000
vt 0.000000 0.000000
vt 0.625000 0.500000
vt 0.500000 0.875000
vt 0.500000 0.750000
vt 0.500000 0.625000
vt 0.000000 0.000000
vt 0.500000 0.500000
vt 0.000000 0.000000
vt 0.000000 0.000000
vt 0.625000 0.875000
vt 0.625000 0.750000
vt 0.625000 0.625000
vt 0.000000 0.000000
vt 0.625000 0.500000
vt 0.000000 0.000000
s 1
f 30/41/15 29/40/16 20/28/17 21/29/18
f 28/39/19 27/37/20 19/27/21
f 29/40/16 28/39/19 19/27/21 20/28/17
f 31/42/22 30/41/15 21/29/18 22/31/23
f 20/28/17 19/27/21 23/32/24 24/33/25
f 21/29/18 20/28/17 24/33/25 25/34/26
f 19/27/21 27/38/20 23/32/24
f 32/44/27 22/30/27 26/35/27 35/47/27
f 33/45/27 34/46/27 32/44/27
f 34/46/27 31/43/27 22/30/27 32/44/27
f 33/45/27 32/44/27 35/47/27
f 22/31/23 21/29/18 25/34/26 26/36/28
f 42/55/29 38/50/30 37/49/31 41/54/32
f 40/53/33 36/48/34 27/37/20
f 41/54/32 37/49/31 36/48/34 40/53/33
f 43/56/35 39/52/36 38/50/30 42/55/29
f 37/49/31 24/33/25 23/32/24 36/48/34
f 38/50/30 25/34/26 24/33/25 37/49/31
f 36/48/34 23/32/24 27/38/20
f 44/58/27 35/47/27 26/35/27 39/51/27
f 33/45/27 44/58/27 45/59/27
f 45/59/27 44/58/27 39/51/27 43/57/27
f 33/45/27 35/47/27 44/58/27
f 39/52/36 26/36/28 25/34/26 38/50/30
f 30/41/15 48/62/37 47/61/38 29/40/16
f 28/39/19 46/60/39 27/37/20
f 29/40/16 47/61/38 46/60/39 28/39/19
f 31/42/22 49/64/40 48/62/37 30/41/15
f 47/61/38 51/66/41 50/65/42 46/60/39
f 48/62/37 52/67/43 51/66/41 47/61/38
f 46/60/39 50/65/42 27/38/20
f 54/70/27 55/71/27 53/68/27 49/63/27
f 33/45/27 54/70/27 34/46/27
f 34/46/27 54/70/27 49/63/27 31/43/27
f 33/45/27 55/71/27 54/70/27
f 49/64/40 53/69/44 52/67/43 48/62/37
f 42/55/29 41/54/32 57/73/45 58/74/46
f 40/53/33 27/37/20 56/72/47
f 41/54/32 40/53/33 56/72/47 57/73/45
f 43/56/35 42/55/29 58/74/46 59/76/48
f 57/73/45 56/72/47 50/65/42 51/66/41
f 58/74/46 57/73/45 51/66/41 52/67/43
f 56/72/47 27/38/20 50/65/42
f 60/77/27 59/75/27 53/68/27 55/71/27
f 33/45/27 45/59/27 60/77/27
f 45/59/27 43/57/27 59/75/27 60/77/27
f 33/45/27 60/77/27 55/71/27
f 59/76/48 58/74/46 52/67/43 53/69/44
